<svg width="101" height="27" viewBox="0 0 101 27" fill="none" xmlns="http://www.w3.org/2000/svg">
<path d="M27.2074 22V11.0909H30.1406V12.9943H30.2543C30.4531 12.3172 30.7869 11.8059 31.2557 11.4602C31.7244 11.1098 32.2642 10.9347 32.875 10.9347C33.0265 10.9347 33.1899 10.9441 33.3651 10.9631C33.5403 10.982 33.6941 11.008 33.8267 11.0412V13.7259C33.6847 13.6832 33.4882 13.6454 33.2372 13.6122C32.9863 13.5791 32.7566 13.5625 32.5483 13.5625C32.1032 13.5625 31.7055 13.6596 31.3551 13.8537C31.0095 14.0431 30.7349 14.3082 30.5313 14.6491C30.3324 14.9901 30.233 15.383 30.233 15.8281V22H27.2074Z" fill="black"/>
<path d="M39.8548 22.2131C38.7326 22.2131 37.7667 21.9858 36.957 21.5312C36.1521 21.072 35.5319 20.4233 35.0962 19.5852C34.6606 18.7424 34.4428 17.7457 34.4428 16.5952C34.4428 15.473 34.6606 14.4882 35.0962 13.6406C35.5319 12.7931 36.145 12.1326 36.9357 11.6591C37.7312 11.1856 38.664 10.9489 39.734 10.9489C40.4537 10.9489 41.1237 11.0649 41.744 11.2969C42.369 11.5241 42.9135 11.8674 43.3775 12.3267C43.8462 12.786 44.2108 13.3636 44.4712 14.0597C44.7317 14.7509 44.8619 15.5606 44.8619 16.4886V17.3196H35.6502V15.4446H42.0139C42.0139 15.009 41.9192 14.6231 41.7298 14.2869C41.5404 13.9508 41.2776 13.688 40.9414 13.4986C40.61 13.3044 40.2241 13.2074 39.7837 13.2074C39.3245 13.2074 38.9173 13.3139 38.5622 13.527C38.2118 13.7353 37.9372 14.017 37.7383 14.3722C37.5394 14.7225 37.4376 15.1132 37.4329 15.544V17.3267C37.4329 17.8665 37.5323 18.3329 37.7312 18.7259C37.9348 19.1188 38.2212 19.4219 38.5906 19.6349C38.9599 19.848 39.3979 19.9545 39.9045 19.9545C40.2407 19.9545 40.5484 19.9072 40.8278 19.8125C41.1071 19.7178 41.3462 19.5758 41.5451 19.3864C41.744 19.197 41.8955 18.965 41.9997 18.6903L44.798 18.875C44.6559 19.5473 44.3647 20.1345 43.9244 20.6364C43.4888 21.1335 42.9253 21.5218 42.234 21.8011C41.5475 22.0758 40.7544 22.2131 39.8548 22.2131Z" fill="black"/>
<path d="M49.8619 15.6932V22H46.8363V7.45454H49.7766V13.0156H49.9045C50.1507 12.3717 50.5484 11.8674 51.0977 11.5028C51.6469 11.1335 52.3358 10.9489 53.1644 10.9489C53.922 10.9489 54.5825 11.1146 55.146 11.446C55.7141 11.7727 56.1545 12.2438 56.467 12.8594C56.7842 13.4702 56.9405 14.2017 56.9357 15.054V22H53.9102V15.5937C53.9149 14.9214 53.7444 14.3982 53.3988 14.0241C53.0579 13.6501 52.5797 13.4631 51.9641 13.4631C51.5522 13.4631 51.1876 13.5507 50.8704 13.7259C50.5579 13.901 50.3117 14.1567 50.1318 14.4929C49.9566 14.8243 49.8666 15.2244 49.8619 15.6932Z" fill="black"/>
<path d="M60.794 26.0909C60.4105 26.0909 60.0507 26.0601 59.7145 25.9986C59.3831 25.9418 59.1084 25.8684 58.8906 25.7784L59.5725 23.5199C59.9276 23.6288 60.2472 23.688 60.5313 23.6974C60.8201 23.7069 61.0687 23.6406 61.277 23.4986C61.4901 23.3565 61.6629 23.1151 61.7955 22.7741L61.973 22.3125L58.0597 11.0909H61.2415L63.5 19.1023H63.6136L65.8935 11.0909H69.0966L64.8566 23.179C64.653 23.7661 64.376 24.2775 64.0256 24.7131C63.6799 25.1534 63.242 25.4919 62.7117 25.7287C62.1814 25.9702 61.5422 26.0909 60.794 26.0909Z" fill="black"/>
<path d="M74.3132 22.1776C73.4846 22.1776 72.7341 21.9645 72.0618 21.5384C71.3942 21.1075 70.8639 20.4754 70.4709 19.642C70.0826 18.804 69.8885 17.7765 69.8885 16.5597C69.8885 15.3097 70.0897 14.2704 70.4922 13.4418C70.8947 12.6084 71.4297 11.9858 72.0973 11.5739C72.7697 11.1572 73.5059 10.9489 74.3061 10.9489C74.9169 10.9489 75.4259 11.053 75.8331 11.2614C76.245 11.465 76.5765 11.7206 76.8274 12.0284C77.0831 12.3314 77.2772 12.6297 77.4098 12.9233H77.5021V7.45454H80.5206V22H77.5377V20.2528H77.4098C77.2678 20.5559 77.0665 20.8565 76.8061 21.1548C76.5504 21.4484 76.2166 21.6922 75.8047 21.8864C75.3975 22.0805 74.9003 22.1776 74.3132 22.1776ZM75.272 19.7699C75.7597 19.7699 76.1717 19.6373 76.5078 19.3722C76.8487 19.1023 77.1092 18.7259 77.2891 18.2429C77.4737 17.7599 77.5661 17.1941 77.5661 16.5455C77.5661 15.8968 77.4761 15.3333 77.2962 14.8551C77.1162 14.3769 76.8558 14.0076 76.5149 13.7472C76.174 13.4867 75.7597 13.3565 75.272 13.3565C74.7749 13.3565 74.3558 13.4915 74.0149 13.7614C73.674 14.0312 73.416 14.4053 73.2408 14.8835C73.0656 15.3617 72.978 15.9157 72.978 16.5455C72.978 17.1799 73.0656 17.741 73.2408 18.2287C73.4207 18.7116 73.6787 19.0904 74.0149 19.3651C74.3558 19.6349 74.7749 19.7699 75.272 19.7699Z" fill="black"/>
<path d="M83.0082 22V11.0909H85.9414V12.9943H86.0551C86.2539 12.3172 86.5877 11.8059 87.0565 11.4602C87.5252 11.1098 88.065 10.9347 88.6758 10.9347C88.8273 10.9347 88.9907 10.9441 89.1658 10.9631C89.341 10.982 89.4949 11.008 89.6275 11.0412V13.7259C89.4855 13.6832 89.289 13.6454 89.038 13.6122C88.7871 13.5791 88.5574 13.5625 88.3491 13.5625C87.904 13.5625 87.5063 13.6596 87.1559 13.8537C86.8103 14.0431 86.5356 14.3082 86.332 14.6491C86.1332 14.9901 86.0338 15.383 86.0338 15.8281V22H83.0082Z" fill="black"/>
<path d="M93.9901 22.206C93.294 22.206 92.6738 22.0852 92.1293 21.8438C91.5848 21.5975 91.1539 21.2353 90.8367 20.7571C90.5242 20.2741 90.3679 19.6728 90.3679 18.9531C90.3679 18.3471 90.4792 17.8381 90.7017 17.4261C90.9243 17.0142 91.2273 16.6828 91.6108 16.4318C91.9943 16.1809 92.4299 15.9915 92.9176 15.8636C93.41 15.7358 93.9262 15.6458 94.4659 15.5937C95.1004 15.5275 95.6118 15.4659 96 15.4091C96.3883 15.3475 96.67 15.2576 96.8452 15.1392C97.0204 15.0208 97.108 14.8456 97.108 14.6136V14.571C97.108 14.1212 96.9659 13.7732 96.6818 13.527C96.4025 13.2808 96.0047 13.1577 95.4886 13.1577C94.9441 13.1577 94.5109 13.2784 94.1889 13.5199C93.867 13.7566 93.6539 14.0549 93.5497 14.4148L90.7514 14.1875C90.8935 13.5246 91.1728 12.9517 91.5895 12.4687C92.0062 11.9811 92.5436 11.607 93.2017 11.3466C93.8646 11.0814 94.6316 10.9489 95.5029 10.9489C96.1089 10.9489 96.6889 11.0199 97.2429 11.1619C97.8016 11.304 98.2964 11.5241 98.7273 11.8224C99.1629 12.1207 99.5062 12.5043 99.7571 12.973C100.008 13.437 100.134 13.9934 100.134 14.642V22H97.2642V20.4872H97.179C97.0038 20.8281 96.7694 21.1288 96.4759 21.3892C96.1823 21.6449 95.8296 21.8461 95.4176 21.9929C95.0057 22.1349 94.5298 22.206 93.9901 22.206ZM94.8566 20.1179C95.3016 20.1179 95.6946 20.0303 96.0355 19.8551C96.3764 19.6752 96.6439 19.4337 96.8381 19.1307C97.0322 18.8277 97.1293 18.4844 97.1293 18.1009V16.9432C97.0346 17.0047 96.9044 17.0616 96.7386 17.1136C96.5777 17.161 96.3954 17.206 96.1918 17.2486C95.9882 17.2865 95.7846 17.322 95.581 17.3551C95.3774 17.3835 95.1927 17.4096 95.027 17.4332C94.6719 17.4853 94.3618 17.5682 94.0966 17.6818C93.8315 17.7955 93.6255 17.9493 93.4787 18.1435C93.3319 18.3329 93.2585 18.5696 93.2585 18.8537C93.2585 19.2656 93.4077 19.5805 93.706 19.7983C94.009 20.0114 94.3925 20.1179 94.8566 20.1179Z" fill="black"/>
<path d="M11 0H9V2H11V0Z" fill="#0E82F6"/>
<path d="M12 2H8V4H12V2Z" fill="#0E82F6"/>
<path d="M13 4H7V6H13V4Z" fill="#0E82F6"/>
<path d="M14 6H6V8H14V6Z" fill="#0E82F6"/>
<path d="M16 8H4V10H16V8Z" fill="#0E82F6"/>
<path d="M18 10H2V12H18V10Z" fill="#0E82F6"/>
<path d="M20 12H0V14H20V12Z" fill="#0E82F6"/>
<path d="M20 14H0V16H20V14Z" fill="#0E82F6"/>
<path d="M20 16H0V18H20V16Z" fill="#0E82F6"/>
<path d="M20 18H0V20H20V18Z" fill="#0E82F6"/>
<path d="M18 20H2V22H18V20Z" fill="#0E82F6"/>
<path d="M16 22H4V24H16V22Z" fill="#0E82F6"/>
<path d="M14 24H6V26H14V24Z" fill="#0E82F6"/>
<path d="M6 14H4V16H6V14Z" fill="white" fill-opacity="0.3"/>
<path d="M6 16H4V18H6V16Z" fill="white" fill-opacity="0.2"/>
</svg>
